<svg width="18" height="17" viewBox="0 0 18 17" fill="none" xmlns="http://www.w3.org/2000/svg">
<path d="M13.8611 15.5947H4.13889C3.37183 15.5947 2.75 14.9729 2.75 14.2058V4.48359C2.75 3.71653 3.37183 3.0947 4.13889 3.0947H5.52778V1.70581H6.91667V3.0947H11.0833V1.70581H12.4722V3.0947H13.8611C14.6282 3.0947 15.25 3.71653 15.25 4.48359V14.2058C15.25 14.9729 14.6282 15.5947 13.8611 15.5947ZM4.13889 7.26137V14.2058H13.8611V7.26137H4.13889ZM4.13889 4.48359V5.87248H13.8611V4.48359H4.13889ZM12.4722 12.8169H11.0833V11.428H12.4722V12.8169ZM9.69444 12.8169H8.30556V11.428H9.69444V12.8169ZM6.91667 12.8169H5.52778V11.428H6.91667V12.8169ZM12.4722 10.0391H11.0833V8.65025H12.4722V10.0391ZM9.69444 10.0391H8.30556V8.65025H9.69444V10.0391ZM6.91667 10.0391H5.52778V8.65025H6.91667V10.0391Z" fill="#B7B7B7"/>
</svg>
