<svg width="24" height="25" viewBox="0 0 24 25" fill="none" xmlns="http://www.w3.org/2000/svg">
<path d="M18.1668 14.8797C17.4951 14.7352 16.9637 15.0471 16.4932 15.3194C16.0114 15.6001 15.0951 16.3434 14.57 16.1531C11.8811 15.046 9.35213 12.6925 8.25739 9.99286C8.06444 9.45647 8.80424 8.5344 9.08283 8.04686C9.35316 7.57492 9.65858 7.03852 9.51928 6.36178C9.3934 5.75366 7.76522 3.68188 7.18947 3.11533C6.80977 2.7411 6.42078 2.53527 6.02147 2.50201C4.5202 2.43756 2.84352 4.44073 2.54945 4.91996C1.81274 5.94181 1.81687 7.30152 2.56183 8.95021C4.35717 13.3786 11.1475 20.0618 15.5925 21.9246C16.4128 22.3082 17.1629 22.5005 17.8366 22.5005C18.496 22.5005 19.0831 22.3165 19.5876 21.9516C19.9684 21.7323 22.0536 19.9724 21.9989 18.4307C21.9659 18.0378 21.7606 17.6448 21.3912 17.2644C20.8289 16.6833 18.7704 15.0065 18.1668 14.8797Z" fill="#A3A3A3"/>
</svg>
