<svg width="24" height="25" viewBox="0 0 24 25" fill="none" xmlns="http://www.w3.org/2000/svg">
<path fill-rule="evenodd" clip-rule="evenodd" d="M16.939 3.5C18.28 3.5 19.57 4.03 20.519 4.981C21.469 5.93 22 7.21 22 8.55V16.45C22 19.24 19.73 21.5 16.939 21.5H7.06C4.269 21.5 2 19.24 2 16.45V8.55C2 5.76 4.259 3.5 7.06 3.5H16.939ZM18.53 10.04L18.61 9.96C18.849 9.67 18.849 9.25 18.599 8.96C18.46 8.811 18.269 8.72 18.07 8.7C17.86 8.689 17.66 8.76 17.509 8.9L13 12.5C12.42 12.981 11.589 12.981 11 12.5L6.5 8.9C6.189 8.67 5.759 8.7 5.5 8.97C5.23 9.24 5.2 9.67 5.429 9.97L5.56 10.1L10.11 13.65C10.67 14.09 11.349 14.33 12.06 14.33C12.769 14.33 13.46 14.09 14.019 13.65L18.53 10.04Z" fill="#A3A3A3"/>
</svg>
