<?xml version="1.0" standalone="no"?>
<!DOCTYPE svg PUBLIC "-//W3C//DTD SVG 20010904//EN"
 "http://www.w3.org/TR/2001/REC-SVG-20010904/DTD/svg10.dtd">
<svg version="1.0" xmlns="http://www.w3.org/2000/svg"
 width="360.000000pt" height="360.000000pt" viewBox="0 0 360.000000 360.000000"
 preserveAspectRatio="xMidYMid meet">
<metadata>
Created by potrace 1.14, written by Peter Selinger 2001-2017
</metadata>
<g transform="translate(0.000000,360.000000) scale(0.100000,-0.100000)"
fill="#000000" stroke="none">
<path d="M8 2173 c26 -50 82 -175 82 -183 0 -6 5 -10 10 -10 6 0 10 -7 10 -15
0 -18 82 -185 91 -185 3 0 18 26 32 58 14 31 55 121 91 199 36 77 66 144 66
147 0 3 -88 6 -195 6 -183 0 -195 -1 -187 -17z"/>
<path d="M390 1983 c-51 -115 -104 -232 -118 -261 l-25 -53 43 -97 c24 -53 49
-103 55 -110 8 -9 23 17 64 112 l53 123 87 -1 86 -1 41 85 42 85 -90 3 c-68 2
-88 6 -81 15 5 7 22 42 37 78 l27 66 85 -1 c47 -1 89 1 93 4 4 3 23 40 44 83
l36 77 -193 0 -193 0 -93 -207z"/>
<path d="M1050 1800 l0 -390 75 0 75 0 0 163 0 163 123 -1 c67 -1 128 1 135 3
8 3 12 27 12 73 l0 69 -135 0 -136 0 3 83 3 82 150 1 c83 1 157 2 165 3 12 1
16 15 16 71 l0 70 -243 0 -243 0 0 -390z"/>
<path d="M1590 1800 l0 -390 75 0 75 0 0 390 0 390 -75 0 -75 0 0 -390z"/>
<path d="M2489 2160 c0 -16 -1 -183 -1 -370 0 -187 1 -349 1 -360 1 -18 8 -20
76 -20 l74 0 3 142 3 142 98 -142 98 -142 95 0 c52 0 94 2 94 5 0 3 -49 71
-109 152 l-109 146 60 81 c34 45 80 106 104 138 24 31 44 59 44 62 0 3 -40 6
-89 6 l-89 0 -46 -62 c-25 -35 -49 -67 -54 -73 -4 -5 -28 -38 -52 -73 l-45
-64 -3 231 -2 231 -75 0 -75 0 -1 -30z"/>
<path d="M2059 2010 c-121 -21 -219 -118 -234 -232 -21 -160 31 -275 155 -339
63 -33 192 -35 264 -5 66 27 129 92 155 158 26 71 23 193 -7 258 -36 79 -116
141 -197 155 -76 12 -90 13 -136 5z m125 -144 c51 -21 80 -89 73 -172 -7 -98
-47 -143 -129 -148 -75 -5 -123 33 -143 110 -15 58 -4 134 25 174 33 46 111
62 174 36z"/>
<path d="M3233 2009 c-144 -26 -241 -152 -235 -304 7 -189 143 -309 328 -292
116 11 203 69 247 165 28 60 30 206 3 265 -55 123 -197 192 -343 166z m123
-139 c16 -6 40 -27 54 -47 21 -30 25 -48 25 -107 0 -120 -43 -170 -141 -168
-49 1 -61 5 -89 32 -72 70 -62 232 17 280 36 22 89 26 134 10z"/>
</g>
</svg>
