<svg xmlns="http://www.w3.org/2000/svg" width="76" height="64" viewBox="0 0 76 64" fill="none">
  <g clip-path="url(#clip0_35_1140)">
    <path d="M20.2595 9.78894C24.7744 6.09109 29.5375 2.28262 35.2316 1.17643C44.6493 -0.625092 57.0924 3.49943 65.7498 7.07086C71.6145 9.48869 76.8121 16.2839 74.6555 22.9685C73.8021 25.5917 71.9714 27.7409 70.6526 30.1587C68.8373 33.4457 68.0305 37.1594 67.5651 40.873C67.1617 44.1284 67.6271 47.3996 65.8584 50.2599C64.1983 52.9463 61.4676 54.8901 58.7059 56.2333C46.9455 62.0645 33.0284 64.5298 20.3371 60.3894C9.6627 56.9128 3.95315 49.1537 1.56382 38.313C0.0588573 31.5178 -0.716898 24.1853 1.90515 17.7535C2.72745 15.7308 3.9066 13.8186 5.53569 12.3806C10.2368 8.24027 17.2806 9.04621 23.4091 10.0734" fill="#F2FFEC"/>
    <path fill-rule="evenodd" clip-rule="evenodd" d="M56.5016 46.2146V63.2658L36.4406 53.0414L16.333 63.2658V8.71456C16.333 4.9535 19.3274 1.90356 23.02 1.90356H49.8146C53.5072 1.90356 56.5016 4.9535 56.5016 8.71456V15.5256" fill="#46B249"/>
    <path fill-rule="evenodd" clip-rule="evenodd" d="M56.5017 46.2146C48.1856 46.2146 41.4365 39.3404 41.4365 30.8701C41.4365 22.5737 48.3718 15.5256 56.5017 15.5256C64.8178 15.5256 71.5513 22.3998 71.5513 30.8701C71.5668 39.3404 64.8333 46.2146 56.5017 46.2146Z" fill="#DF5426"/>
    <path d="M55.1823 37.0017C54.7014 37.0017 54.2514 36.812 53.9101 36.4644L49.8762 32.3398C49.178 31.6287 49.178 30.4751 49.8762 29.764C50.5744 29.0529 51.707 29.0529 52.4051 29.764L55.1823 32.5927L60.6437 27.0143C61.3418 26.3032 62.4744 26.3032 63.1726 27.0143C63.8708 27.7254 63.8708 28.879 63.1726 29.5902L56.4391 36.4644C56.1132 36.812 55.6633 37.0017 55.1823 37.0017Z" fill="white"/>
  </g>
  <defs>
    <clipPath id="clip0_35_1140">
      <rect width="75" height="62.5" fill="white" transform="translate(0.166992 0.75)"/>
    </clipPath>
  </defs>
</svg>