<svg xmlns="http://www.w3.org/2000/svg" width="107" height="76" viewBox="0 0 107 76" fill="none">
  <g clip-path="url(#clip0_35_1075)">
    <path d="M0.953211 32.972C-2.0684 46.2761 19.0829 78.1276 52.6285 73.6473C68.237 71.5538 68.3139 63.5518 81.3242 55.2563C89.0803 50.3064 99.5116 47.3913 103.707 38.9588C107.345 31.6807 107.325 23.17 104.227 17.0853C97.2791 3.38993 80.4581 -8.09463 59.2491 7.77245C38.0401 23.6395 8.72856 -1.30563 0.953211 32.972Z" fill="#F2FFEC"/>
    <path d="M73.5501 48.2916H65.3705C62.195 48.2916 59.5968 45.67 59.5968 42.4222V38.7049C56.4212 38.1571 53.977 35.3397 53.9962 31.955C53.9962 31.3876 54.0732 30.8202 54.2079 30.2724C54.7468 28.042 56.3635 26.2616 58.4998 25.5182C58.8654 25.4008 59.2311 25.3029 59.5968 25.2443V21.5269C59.5968 19.9617 60.1934 18.4944 61.2904 17.3792C62.3874 16.264 63.8309 15.6575 65.3705 15.6575H69.0273C69.5662 12.4293 72.3183 9.96411 75.6479 9.96411C76.206 9.96411 76.7641 10.0424 77.303 10.1793C79.4971 10.7467 81.2292 12.3706 81.9798 14.5423C82.0953 14.914 82.1915 15.2857 82.2492 15.6575H85.9059C87.4456 15.6575 88.8891 16.264 89.9861 17.3792C91.0831 18.4944 91.6797 19.9617 91.6797 21.5269V29.842L89.2355 29.3333C88.7736 29.2355 88.2732 29.2746 87.8305 29.4311C87.003 29.7246 86.3678 30.4094 86.1561 31.2702C85.7905 32.718 86.6565 34.1854 88.0615 34.5571C88.4464 34.6549 88.8506 34.6745 89.2355 34.5767L91.6797 34.0876V42.4026C91.6797 45.6308 89.1008 48.2721 85.9059 48.2721H77.7264L78.2268 45.7873C78.3231 45.3178 78.2846 44.8091 78.1306 44.3395C77.8419 43.4983 77.1683 42.8526 76.3215 42.6374C74.8973 42.2657 73.4538 43.1461 73.0882 44.5743C73.0304 44.7895 73.0112 45.0047 73.0112 45.2395C73.0112 45.4156 73.0304 45.5917 73.0689 45.7678L73.5501 48.2916ZM63.6769 34.1071V42.4222C63.6769 43.3809 64.4467 44.1439 65.3705 44.1439H69.0273C69.0658 43.9482 69.1043 43.7722 69.1428 43.5765C70.0666 39.9375 73.7233 37.7266 77.303 38.6657C79.4971 39.2136 81.2292 40.857 81.9798 43.0287C82.0953 43.4004 82.1915 43.7722 82.2492 44.1439H85.9059C86.849 44.1439 87.5996 43.3613 87.5996 42.4222V38.7049C87.4071 38.6657 87.2339 38.6266 87.0415 38.5875C85.3093 38.1375 83.8466 37.0223 82.9228 35.4571C82.0183 33.8919 81.7488 32.0528 82.1915 30.292C82.7304 28.0616 84.347 26.3008 86.4833 25.5377C86.849 25.4203 87.2147 25.3225 87.5803 25.2638V21.5465C87.5803 21.0769 87.4071 20.6465 87.08 20.3335C86.7528 20.0009 86.3294 19.8248 85.8867 19.8248H77.7072L78.1883 17.3401C78.2846 16.8509 78.2461 16.3618 78.0921 15.8923C77.8034 15.051 77.1298 14.4053 76.283 14.1901C76.0713 14.1314 75.8403 14.1119 75.6286 14.1119C74.1659 14.1119 72.9919 15.3053 72.9919 16.7922C72.9919 16.9683 73.0112 17.1444 73.0497 17.3401L73.5308 19.8248H65.3513C64.8894 19.8248 64.466 20.0009 64.1581 20.3335C63.8309 20.6661 63.6577 21.0965 63.6577 21.5465V29.8616L61.2134 29.3724C60.7515 29.2746 60.2511 29.3137 59.7892 29.4703C58.9617 29.7637 58.3265 30.4485 58.1148 31.3094C58.0571 31.5246 58.0379 31.7593 58.0379 31.9746C58.0379 33.4615 59.2119 34.6549 60.6745 34.6549C60.8478 34.6549 61.021 34.6354 61.2134 34.5962L63.6769 34.1071Z" fill="white"/>
    <path fill-rule="evenodd" clip-rule="evenodd" d="M26.8015 24.9509H32.5175C32.3443 25.7922 32.402 26.6726 32.6715 27.4748C33.1719 28.9813 34.4036 30.1356 35.924 30.5269C38.426 31.1725 40.9857 29.6465 41.6401 27.0835C41.7363 26.6922 41.794 26.3009 41.794 25.9096C41.794 25.5966 41.7556 25.264 41.6978 24.9509H47.4139C49.4924 24.9509 51.1668 26.6531 51.1668 28.7661V34.5768C50.3392 34.4007 49.4732 34.4594 48.6841 34.7333C47.2022 35.242 46.0666 36.4942 45.6817 38.0398C45.0466 40.5832 46.5478 43.1854 49.069 43.8506C49.4539 43.9484 49.8388 44.0071 50.2238 44.0071C50.5317 44.0071 50.8589 43.9679 51.1668 43.9093V49.72C51.1668 51.833 49.4924 53.5352 47.4139 53.5352H41.6978C41.7556 53.8482 41.794 54.1612 41.794 54.4938C41.794 57.1351 39.6962 59.2677 37.098 59.2677C36.7131 59.2677 36.3282 59.209 35.9433 59.1111C34.4229 58.7198 33.1911 57.5851 32.6907 56.059C32.4213 55.2373 32.3635 54.3764 32.5368 53.5352H26.8207C24.7422 53.5352 23.0678 51.833 23.0678 49.72V43.9093C22.7598 43.9679 22.4519 44.0071 22.1247 44.0071C19.5265 44.0071 17.4287 41.8745 17.4287 39.2333C17.4287 38.842 17.4864 38.4507 17.5827 38.0594C17.9676 36.5137 19.0839 35.2616 20.585 34.7529C21.3934 34.479 22.2402 34.4203 23.0678 34.5964V28.7856C23.0678 26.6531 24.7422 24.9509 26.8015 24.9509Z" fill="#46B249"/>
    <path d="M37.0975 61.3023C36.5394 61.3023 35.9812 61.224 35.4423 61.0871C33.2483 60.5197 31.4969 58.8958 30.7656 56.7045C30.6501 56.3328 30.5539 55.9611 30.4961 55.5893H26.8202C23.6253 55.5893 21.0464 52.9481 21.0464 49.7199V45.983C17.8323 45.4352 15.3881 42.6178 15.4073 39.2136C15.4073 38.6462 15.4843 38.0788 15.619 37.531C16.1579 35.3006 17.7746 33.5202 19.9109 32.7767C20.2766 32.6593 20.6422 32.5615 21.0271 32.5028V28.7659C21.0271 25.5182 23.6253 22.8965 26.8009 22.8965H32.517V24.7551L34.557 24.9704V26.6529C34.5763 26.7116 34.5955 26.7703 34.6148 26.829C34.9035 27.6703 35.5771 28.3159 36.4431 28.5312C37.8673 28.9029 39.33 28.0225 39.6957 26.5942C39.7534 26.379 39.7727 26.1442 39.7727 25.929C39.7727 25.753 39.7534 25.5769 39.7149 25.3812L39.2338 22.8965H47.4326C50.6274 22.8965 53.2063 25.5377 53.2063 28.7659V37.1006L50.7621 36.5919C50.3002 36.4941 49.7998 36.5332 49.3379 36.6897C48.5103 36.9832 47.8752 37.6679 47.6635 38.5484C47.2978 39.9962 48.1639 41.4831 49.5881 41.8548C49.973 41.9526 50.3772 41.9722 50.7813 41.8744L53.2256 41.3853V49.7199C53.2256 52.9677 50.6274 55.5893 47.4518 55.5893H43.7758C43.2177 58.8371 40.427 61.3023 37.0975 61.3023ZM34.557 55.198C34.5763 55.2567 34.5955 55.3154 34.6148 55.3741C34.9035 56.2154 35.5771 56.8611 36.4431 57.0763C36.6741 57.135 36.8858 57.135 37.1167 57.1545C38.5794 57.1545 39.7727 55.9415 39.7727 54.4546C39.7727 54.2785 39.7534 54.0829 39.7149 53.9068L39.2338 51.422H47.4326C48.3756 51.422 49.1454 50.6394 49.1454 49.6808V45.9439C48.953 45.9047 48.7798 45.8656 48.5873 45.8265C44.9883 44.8874 42.8135 41.1505 43.7373 37.5114C44.2955 35.281 45.8929 33.5006 48.0484 32.7572C48.4141 32.6398 48.7798 32.542 49.1647 32.4833V28.7464C49.1647 27.7877 48.3948 27.0051 47.4518 27.0051H43.7758C43.7373 27.2008 43.6988 27.3964 43.6604 27.5725C42.7365 31.2311 39.0606 33.4419 35.4808 32.5028C33.2868 31.955 31.5354 30.3116 30.8041 28.1203C30.6886 27.7486 30.5924 27.3768 30.5346 27.0051H26.8587C25.9156 27.0051 25.1458 27.7877 25.1458 28.7464V37.081L22.7015 36.5723C22.2204 36.4745 21.7392 36.5136 21.2773 36.6701C20.4498 36.9636 19.8147 37.6484 19.603 38.5288C19.5452 38.7636 19.526 38.9788 19.526 39.2136C19.526 40.7005 20.7192 41.9135 22.1819 41.9135C22.3551 41.9135 22.5476 41.894 22.7208 41.8548L25.165 41.3657V49.7003C25.165 50.659 25.9349 51.4416 26.8779 51.4416H32.5939V53.3003L34.634 53.5155V55.198H34.557Z" fill="white"/>
    <path fill-rule="evenodd" clip-rule="evenodd" d="M26.8015 24.9509H32.5175C32.3443 25.7922 32.402 26.6726 32.6715 27.4748C33.1719 28.9813 34.4036 30.1356 35.924 30.5269C38.426 31.1725 40.9857 29.6465 41.6401 27.0835C41.7363 26.6922 41.794 26.3009 41.794 25.9096C41.794 25.5966 41.7556 25.264 41.6978 24.9509H47.4139C49.4924 24.9509 51.1668 26.6531 51.1668 28.7661V34.5768C50.3392 34.4007 49.4732 34.4594 48.6841 34.7333C47.2022 35.242 46.0666 36.4942 45.6817 38.0398C45.0466 40.5832 46.5478 43.1854 49.069 43.8506C49.4539 43.9484 49.8388 44.0071 50.2238 44.0071C50.5317 44.0071 50.8589 43.9679 51.1668 43.9093V49.72C51.1668 51.833 49.4924 53.5352 47.4139 53.5352H41.6978C41.7556 53.8482 41.794 54.1612 41.794 54.4938C41.794 57.1351 39.6962 59.2677 37.098 59.2677C36.7131 59.2677 36.3282 59.209 35.9433 59.1111C34.4229 58.7198 33.1911 57.5851 32.6907 56.059C32.4213 55.2373 32.3635 54.3764 32.5368 53.5352H26.8207C24.7422 53.5352 23.0678 51.833 23.0678 49.72V43.9093C22.7598 43.9679 22.4519 44.0071 22.1247 44.0071C19.5265 44.0071 17.4287 41.8745 17.4287 39.2333C17.4287 38.842 17.4864 38.4507 17.5827 38.0594C17.9676 36.5137 19.0839 35.2616 20.585 34.7529C21.3934 34.479 22.2402 34.4203 23.0678 34.5964V28.7856C23.0678 26.6531 24.7422 24.9509 26.8015 24.9509Z" fill="#46B249"/>
    <path fill-rule="evenodd" clip-rule="evenodd" d="M89.6585 21.5466V27.3378C88.8309 27.1617 87.9841 27.2204 87.1757 27.4943C85.6938 28.003 84.5776 29.2551 84.1926 30.8007C83.5575 33.3442 85.0587 35.9267 87.5607 36.5919C87.9456 36.6898 88.3305 36.7484 88.7154 36.7484C89.0234 36.7484 89.3505 36.7093 89.6585 36.6506V42.4418C89.6585 44.5353 87.9841 46.2374 85.9248 46.2374H80.228C80.4012 45.3961 80.3434 44.5353 80.074 43.7135C79.5736 42.207 78.3419 41.0723 76.8214 40.681C74.3195 40.0353 71.779 41.5614 71.1247 44.1048C71.0284 44.4961 70.9707 44.8874 70.9707 45.2787C70.9707 45.5918 71.0092 45.9244 71.0669 46.2374H65.3701C63.3108 46.2374 61.6364 44.5353 61.6364 42.4418V36.6506C61.3285 36.7093 61.0205 36.7484 60.6934 36.7484C58.1144 36.7484 56.0166 34.6159 56.0166 31.9942C56.0166 31.6029 56.0743 31.2116 56.1706 30.8203C56.5555 29.2747 57.6717 28.0421 59.1537 27.5138C59.9428 27.2399 60.8088 27.1812 61.6364 27.3573V21.5661C61.6364 19.4727 63.3108 17.7706 65.3701 17.7706H71.0669C71.0092 17.4575 70.9707 17.1445 70.9707 16.8119C70.9707 14.1902 73.0685 12.0576 75.6474 12.0576C76.0324 12.0576 76.4173 12.1163 76.8022 12.2141C78.3226 12.6054 79.5351 13.7402 80.0548 15.2467C80.3242 16.0488 80.3819 16.9293 80.2087 17.7706H85.9055C86.8871 17.7706 87.8494 18.1618 88.5422 18.8857C89.2543 19.5705 89.6585 20.5292 89.6585 21.5466Z" fill="#46B249"/>
    <path d="M5.7845 60.0306C5.57279 59.7176 5.41882 50.4243 5.63053 50.0525C5.84223 49.6808 14.984 46.9809 14.984 46.9809C14.984 46.9809 18.0826 41.8549 21.008 38.9788C22.1628 37.8441 23.8372 36.8854 24.2606 37.531C24.5108 37.9223 24.1066 38.9397 23.5292 39.9962C22.7209 41.4831 21.6046 43.0483 21.5084 43.2048C21.5084 43.2048 21.5084 43.2048 21.5084 43.2244C21.5084 43.2244 29.1106 41.2679 30.2461 41.0527C31.3816 40.8375 32.8828 40.5049 33.1137 41.2875C33.3254 42.0114 31.4008 42.8527 31.2853 42.9114C31.4008 42.8722 34.0375 42.1288 34.4224 43.1461C34.7111 43.8896 31.9974 45.3178 31.9205 45.357C31.9974 45.3374 33.2869 44.9852 33.4216 45.6113C33.6526 46.6483 30.8234 47.8221 30.708 47.8808C30.7657 47.8613 31.8242 47.6069 31.9012 48.1939C32.0937 49.6221 22.3937 53.5742 19.4299 54.6894C16.4467 55.785 5.9962 60.3436 5.7845 60.0306ZM104.458 8.96636C104.67 9.2794 104.824 18.514 104.612 18.8857C104.401 19.2575 95.2588 21.9379 95.2588 21.9379C95.2588 21.9379 92.1602 27.0443 89.2348 29.9007C88.0801 31.0355 86.4057 31.9746 85.9823 31.3485C85.7321 30.9572 86.1362 29.9594 86.7136 28.9029C87.5219 27.4356 88.6382 25.8704 88.7344 25.7139V25.6943C88.7344 25.6943 81.1515 27.6508 79.9968 27.8464C78.8613 28.0617 77.3601 28.3943 77.1291 27.6117C76.9174 26.8878 78.842 26.0465 78.9575 26.0073C78.842 26.0465 76.2053 26.7704 75.8204 25.7726C75.5317 25.0291 78.2454 23.6204 78.3224 23.5813C78.2454 23.6009 76.9559 23.953 76.8212 23.327C76.5902 22.3096 79.4194 21.1161 79.5349 21.077C79.4771 21.0966 78.4186 21.3509 78.3416 20.764C78.1492 19.3553 87.8491 15.4228 90.813 14.3076C93.7961 13.1924 104.247 8.65333 104.458 8.96636Z" fill="#DF5426"/>
    <path d="M71.2398 73.1389C70.5277 81.4148 87.2909 69.1281 93.4496 63.6695C94.6428 62.5935 95.8746 61.2435 95.7976 59.6196C95.7014 57.7805 93.9307 56.4893 92.1986 56.0001C87.7143 54.7284 83.0183 56.9979 79.2076 59.7174C79.2076 59.6979 71.8364 66.2325 71.2398 73.1389Z" fill="#F2FFEC"/>
  </g>
  <defs>
    <clipPath id="clip0_35_1075">
      <rect width="105.833" height="75.8333" fill="white" transform="translate(0.666992 0.0834961)"/>
    </clipPath>
  </defs>
</svg>