<svg xmlns="http://www.w3.org/2000/svg" width="79" height="75" viewBox="0 0 79 75" fill="none">
  <path d="M8.31305 20.799C0.953395 32.23 -1.13339 47.0444 2.7607 60.1384C4.53075 66.1024 8.1081 72.2193 13.9772 73.825C18.1135 74.9719 22.492 73.6147 26.442 71.9326C30.392 70.2504 34.342 68.2242 38.6088 67.9375C47.7198 67.3449 56.5328 74.819 65.3085 72.2766C69.333 71.1106 72.6123 67.8992 74.6245 64.1335C76.6368 60.3678 77.5311 56.0668 77.9783 51.785C79.2639 39.7232 77.1398 26.9732 70.3764 17.0141C64.7123 8.66074 55.862 2.94524 46.043 1.56894C41.3104 0.919017 37.9007 0.383787 33.1868 1.87478C28.4916 3.34667 24.0199 5.60228 19.9953 8.52693C15.4119 11.8339 11.406 16.001 8.31305 20.799Z" fill="#F2FFEC"/>
  <path d="M55.9229 13.5188C48.9532 14.2119 40.8831 13.0117 34.3135 9.86742L34.0968 6.92603L30.2451 7.51769C23.0086 14.0598 14.9885 17.8802 5.51769 18.9959C4.36719 19.1311 1.84943 19.5876 1.66602 19.5876C2.71647 31.7589 5.65108 44.1837 12.4207 54.3096C19.1903 64.4354 30.2118 72.1101 42.267 72.6003L46.1187 72.0087L45.1349 71.1127C60.7751 61.1221 60.7917 27.3299 55.9229 13.5188Z" fill="#46B249"/>
  <path d="M46.1176 71.9918C34.0623 71.5015 23.0409 63.8269 16.2713 53.701C9.50167 43.5921 6.58373 31.1672 5.5166 18.9959C16.3046 18.5733 26.0255 14.2288 34.079 6.92603C41.1321 11.7945 51.2865 13.7724 59.7735 12.9102C64.9258 27.5327 64.6256 64.5199 46.1176 71.9918Z" fill="#B8DAAD"/>
  <path d="M45.4693 68.2389C35.6984 67.5289 25.7441 61.2235 19.3246 51.6217C14.2724 44.0991 11.0043 34.2776 9.55371 22.3936C18.541 21.2779 27.028 17.5758 34.4312 11.5071C40.4338 14.9049 48.0871 16.832 55.8572 16.832C56.2907 16.832 56.7242 16.832 57.1411 16.8151C61.1762 32.1476 59.242 61.7306 45.4693 68.2389Z" fill="white"/>
  <path d="M29.9452 23.5602L31.8794 33.1451L21.875 34.5651L23.9926 45.215L33.4634 43.1188L35.5976 53.2785L46.2856 51.3682L44.2181 42.0707L52.2882 40.8536L49.5037 30.2037L41.6669 31.4208L39.3493 22.2585L29.9452 23.5602Z" fill="#46B249"/>
  <path d="M59.2555 27.753C57.338 29.359 56.2709 31.7763 56.3876 34.3289C56.5043 36.4589 57.4714 38.5381 59.0387 39.9581C62.1067 42.7474 68.2928 43.4743 71.6776 40.8879C74.162 38.9946 75.0123 34.9713 74.4121 31.9961C73.9952 29.9675 72.7113 28.1925 70.9606 27.1276C68.3261 25.5216 64.8079 25.0652 61.9233 26.164C60.9729 26.5528 60.0558 27.0937 59.2555 27.753Z" fill="#DF5426"/>
  <path d="M66.7602 22.3774L64.3424 22.4789C64.8093 23.6115 64.5759 25.0146 63.7422 25.9105C64.776 26.3331 65.9598 26.4514 67.0436 26.1641C66.3266 25.0653 66.2266 23.5777 66.7602 22.3774Z" fill="#DF5426"/>
  <path d="M63.0415 22.0394C62.8414 23.1889 68.3104 23.2396 68.2271 22.1915C68.127 20.7715 63.3249 20.3827 63.0415 22.0394Z" fill="#DF5426"/>
  <path d="M75.1625 27.6013L73.5452 25.7925C72.9949 26.8913 71.7777 27.6013 70.5605 27.5167C70.9107 28.5817 71.5777 29.5791 72.478 30.2553C72.8615 28.9874 73.912 27.9732 75.1625 27.6013Z" fill="#DF5426"/>
  <path d="M73.0274 24.5075C72.027 25.0823 75.4951 29.376 76.2455 28.6322C77.2626 27.6349 74.478 23.6623 73.0274 24.5075Z" fill="#DF5426"/>
  <path d="M76.6304 37.5075L76.9639 35.0733C75.78 35.3437 74.4628 34.8535 73.7458 33.873C73.1622 34.8366 72.8454 36.003 72.9121 37.1187C74.0959 36.5947 75.5466 36.7637 76.6304 37.5075Z" fill="#DF5426"/>
  <path d="M77.5976 33.8389C76.5138 33.4332 75.5134 38.8934 76.5472 38.9948C77.9478 39.1469 79.165 34.4306 77.5976 33.8389Z" fill="#DF5426"/>
  <path d="M70.0765 44.9789L72.1274 43.6772C71.1603 42.9334 70.6768 41.5979 70.9602 40.3977C69.8597 40.5668 68.7759 41.057 67.9756 41.8346C69.1261 42.4432 69.9431 43.6772 70.0765 44.9789Z" fill="#DF5426"/>
  <path d="M73.4609 43.3896C73.0774 42.2909 68.3086 45.0125 68.8922 45.8915C69.6759 47.0748 74.0278 44.9787 73.4609 43.3896Z" fill="#DF5426"/>
  <path d="M60.3398 44.2013L62.6408 44.9451C62.5742 43.711 63.2911 42.4939 64.3749 41.936C63.5412 41.1753 62.4741 40.6682 61.357 40.533C61.6571 41.8177 61.2402 43.2377 60.3398 44.2013Z" fill="#DF5426"/>
  <path d="M63.7245 45.8072C64.3081 44.793 59.1892 42.832 58.9057 43.8632C58.5055 45.2325 62.8741 47.261 63.7245 45.8072Z" fill="#DF5426"/>
  <path d="M54.0869 36.8646L55.004 39.1298C55.8877 38.3015 57.2716 38.0479 58.3888 38.5382C58.4221 37.4056 58.122 36.2391 57.5051 35.2925C56.7214 36.3744 55.3875 36.966 54.0869 36.8646Z" fill="#DF5426"/>
  <path d="M55.0371 40.533C56.1709 40.3301 54.3701 35.1066 53.4197 35.5292C52.1191 36.104 53.403 40.8203 55.0371 40.533Z" fill="#DF5426"/>
  <path d="M56.0713 27.0601L54.9375 29.2238C56.138 29.376 57.2052 30.3057 57.5553 31.4722C58.439 30.7791 59.1227 29.7986 59.4395 28.7167C58.1556 28.8012 56.8383 28.142 56.0713 27.0601Z" fill="#DF5426"/>
  <path d="M53.92 30.1703C54.8037 30.931 57.5883 26.164 56.6545 25.6906C55.3873 25.0483 52.6528 29.0715 53.92 30.1703Z" fill="#DF5426"/>
  <path d="M59.0401 31.1002C58.8734 31.5059 58.8067 31.9623 58.9401 32.368C59.1068 32.8921 59.6071 33.2809 60.1406 33.3823C60.6742 33.4837 61.2411 33.3485 61.7246 33.078C62.2082 32.8075 62.6417 32.368 62.8585 31.8609C63.0919 31.3368 63.1086 30.7114 62.8585 30.2042C62.6084 29.6633 61.9748 29.2069 61.3745 29.2914C60.7242 29.3759 60.1073 29.714 59.6571 30.1873C59.3903 30.4409 59.1902 30.7621 59.0401 31.1002Z" fill="#F7A088"/>
  <path d="M60.1078 35.4951C59.991 35.7994 59.9243 36.1544 60.0244 36.4586C60.1578 36.8644 60.5246 37.1517 60.9415 37.2363C61.3583 37.3208 61.7918 37.2193 62.1587 36.9996C62.5255 36.7798 62.859 36.4586 63.0257 36.0698C63.1924 35.6641 63.2091 35.1908 63.0257 34.802C62.8256 34.3963 62.3587 34.0413 61.8919 34.092C61.3917 34.1596 60.9248 34.4132 60.5746 34.7682C60.3745 34.9879 60.2078 35.2246 60.1078 35.4951Z" fill="#F7A088"/>
  <path d="M63.1255 32.4862C63.0422 32.689 63.0088 32.9088 63.0755 33.1116C63.1589 33.3821 63.409 33.568 63.6758 33.6188C63.9426 33.6695 64.226 33.6019 64.4594 33.4666C64.7096 33.3314 64.9096 33.1116 65.0264 32.8581C65.1431 32.6045 65.1431 32.2833 65.0264 32.0297C64.893 31.7593 64.5928 31.5226 64.276 31.5733C63.9592 31.624 63.6424 31.7762 63.4257 32.0128C63.2923 32.1481 63.1922 32.3171 63.1255 32.4862Z" fill="#F7A088"/>
  <path d="M58.6239 34.3289C58.5739 34.4472 58.5572 34.5824 58.5906 34.7008C58.6406 34.8529 58.7907 34.9713 58.9574 35.0051C59.1242 35.0389 59.2909 34.9882 59.4243 34.9205C59.5744 34.836 59.6911 34.7177 59.7578 34.5486C59.8245 34.3965 59.8245 34.2105 59.7578 34.0584C59.6744 33.8894 59.491 33.7541 59.3076 33.7879C59.1075 33.8217 58.9241 33.9063 58.7907 34.0584C58.724 34.126 58.6573 34.2274 58.6239 34.3289Z" fill="#F7A088"/>
  <path d="M63.5917 30.1873C63.5417 30.3056 63.525 30.4408 63.5584 30.5592C63.6084 30.7113 63.7585 30.8296 63.9252 30.8635C64.0919 30.8973 64.2587 30.8466 64.3921 30.7789C64.5421 30.6944 64.6588 30.5761 64.7255 30.407C64.7922 30.2549 64.7922 30.0689 64.7255 29.9168C64.6422 29.7478 64.4588 29.6125 64.2753 29.6463C64.0753 29.6801 63.8918 29.7647 63.7585 29.9168C63.6918 29.9844 63.6417 30.0858 63.5917 30.1873Z" fill="#F7A088"/>
  <path d="M43.5845 54.3098C41.7837 54.9521 40.3997 56.4059 39.8328 58.2654C39.366 59.8206 39.5327 61.5787 40.283 63.0156C41.767 65.8387 46.0189 67.9856 49.1202 67.022C51.3879 66.312 53.0386 63.658 53.3721 61.359C53.5888 59.8037 53.1219 58.1809 52.1549 56.9638C50.6709 55.1043 48.2698 53.8533 45.9021 53.8871C45.1351 53.904 44.3348 54.0393 43.5845 54.3098Z" fill="#DF5426"/>
  <path d="M50.3542 52.4336L48.5868 51.8589C48.6368 52.7886 48.1032 53.7353 47.2695 54.1579C47.9031 54.7327 48.7202 55.1215 49.5705 55.2229C49.3538 54.2424 49.6706 53.1605 50.3542 52.4336Z" fill="#DF5426"/>
  <path d="M47.7699 51.2165C47.3364 51.9941 51.2381 53.4817 51.4549 52.7041C51.755 51.6391 48.4035 50.1008 47.7699 51.2165Z" fill="#DF5426"/>
  <path d="M55.0562 58.4179L54.3559 56.6936C53.6722 57.336 52.6218 57.5219 51.7714 57.15C51.7547 58.0122 51.9715 58.9081 52.455 59.6181C53.0386 58.7898 54.0557 58.3503 55.0562 58.4179Z" fill="#DF5426"/>
  <path d="M54.3223 55.6117C53.4553 55.7638 54.8392 59.7533 55.5729 59.4321C56.5567 58.9926 55.5729 55.3919 54.3223 55.6117Z" fill="#DF5426"/>
  <path d="M53.5552 65.9068L54.4055 64.2501C53.4885 64.1318 52.6714 63.4387 52.4047 62.5259C51.7377 63.0668 51.2041 63.8106 50.9707 64.639C51.9711 64.5882 52.9716 65.0954 53.5552 65.9068Z" fill="#DF5426"/>
  <path d="M55.1886 63.54C54.5216 62.9652 52.3873 66.6166 53.1043 66.9716C54.0881 67.4449 56.1723 64.3683 55.1886 63.54Z" fill="#DF5426"/>
  <path d="M46.9171 69.5412L48.7179 69.1355C48.2177 68.3409 48.2177 67.2591 48.7346 66.4814C47.9009 66.3124 47.0005 66.38 46.2168 66.735C46.9004 67.4619 47.1672 68.5776 46.9171 69.5412Z" fill="#DF5426"/>
  <path d="M49.7691 69.3046C49.7691 68.4086 45.6507 69.1017 45.8341 69.8793C46.1009 70.9443 49.7691 70.5893 49.7691 69.3046Z" fill="#DF5426"/>
  <path d="M40.1318 66.4135L41.5991 67.563C41.8659 66.667 42.6996 65.9739 43.6167 65.8556C43.2165 65.0949 42.5829 64.4356 41.8159 64.0637C41.6992 65.0442 41.0322 65.957 40.1318 66.4135Z" fill="#DF5426"/>
  <path d="M42.1496 68.4589C42.8333 67.8842 39.6486 65.1287 39.1817 65.788C38.5481 66.667 41.1659 69.2872 42.1496 68.4589Z" fill="#DF5426"/>
  <path d="M37.5303 59.4826L37.597 61.359C38.4473 60.9871 39.5145 61.19 40.1814 61.8324C40.4982 61.0379 40.5816 60.1081 40.3815 59.2798C39.5478 59.8207 38.4307 59.9053 37.5303 59.4826Z" fill="#DF5426"/>
  <path d="M37.2803 62.3734C38.1474 62.5255 38.1974 58.2993 37.3971 58.3501C36.3132 58.4177 36.0131 62.1367 37.2803 62.3734Z" fill="#DF5426"/>
  <path d="M41.4835 52.9746L40.1162 54.2255C40.9332 54.6482 41.4668 55.5948 41.4168 56.5415C42.2338 56.271 42.9841 55.747 43.4844 55.0539C42.5173 54.7665 41.7503 53.9551 41.4835 52.9746Z" fill="#DF5426"/>
  <path d="M39.1321 54.6312C39.5657 55.4088 42.8004 52.721 42.2502 52.1462C41.4998 51.3517 38.4985 53.5155 39.1321 54.6312Z" fill="#DF5426"/>
  <path d="M42.5669 56.6595C42.3502 56.8962 42.1834 57.2174 42.1668 57.5386C42.1501 57.9612 42.4169 58.3669 42.767 58.5867C43.1338 58.8064 43.5674 58.8571 43.9842 58.7895C44.4011 58.7219 44.8179 58.5191 45.118 58.2148C45.4182 57.8936 45.5849 57.4541 45.5516 57.0314C45.5015 56.575 45.1847 56.0848 44.7179 55.9834C44.2343 55.8819 43.7008 55.9496 43.2506 56.1693C43.0005 56.2707 42.767 56.4567 42.5669 56.6595Z" fill="#F7A088"/>
  <path d="M42.2005 60.0914C42.0338 60.2773 41.9004 60.514 41.9004 60.7676C41.8837 61.0887 42.0838 61.4099 42.3673 61.579C42.634 61.748 42.9842 61.7818 43.301 61.7311C43.6178 61.6804 43.9346 61.5283 44.168 61.2916C44.4015 61.0549 44.5182 60.7168 44.5015 60.3788C44.4682 60.0238 44.2181 59.6519 43.8679 59.5673C43.5011 59.4828 43.1009 59.5504 42.7508 59.7026C42.5173 59.804 42.3506 59.9392 42.2005 60.0914Z" fill="#F7A088"/>
  <path d="M45.1513 58.722C45.0345 58.8403 44.9512 58.9925 44.9512 59.1615C44.9512 59.3813 45.0679 59.5841 45.2513 59.6855C45.4347 59.787 45.6515 59.8208 45.8516 59.787C46.0683 59.7532 46.2684 59.6517 46.4185 59.4996C46.5685 59.3475 46.6519 59.1277 46.6352 58.9079C46.6186 58.6882 46.4518 58.4346 46.2184 58.3839C45.9683 58.3332 45.7182 58.367 45.4847 58.4684C45.3513 58.536 45.2346 58.6206 45.1513 58.722Z" fill="#F7A088"/>
  <path d="M41.4331 58.8574C41.3664 58.925 41.3164 59.0264 41.3164 59.1279C41.3164 59.2462 41.3831 59.3814 41.4998 59.4491C41.5999 59.5167 41.7333 59.5336 41.8666 59.5167C42 59.4998 42.1168 59.4322 42.2001 59.3476C42.2835 59.2462 42.3335 59.1279 42.3335 58.9926C42.3168 58.8574 42.2168 58.7053 42.0834 58.6714C41.9333 58.6376 41.7833 58.6545 41.6499 58.7222C41.5665 58.756 41.4998 58.8067 41.4331 58.8574Z" fill="#F7A088"/>
  <path d="M46.0855 57.2007C46.0188 57.2683 45.9688 57.3697 45.9688 57.4711C45.9688 57.5895 46.0354 57.7247 46.1522 57.7923C46.2522 57.8599 46.3856 57.8768 46.519 57.8599C46.6524 57.843 46.7691 57.7754 46.8525 57.6909C46.9358 57.5895 46.9859 57.4711 46.9859 57.3359C46.9692 57.2007 46.8691 57.0485 46.7357 57.0147C46.5857 56.9809 46.4356 56.9978 46.3022 57.0654C46.2022 57.0823 46.1355 57.133 46.0855 57.2007Z" fill="#F7A088"/>
  <path d="M45.9532 13.6716C45.0028 14.6859 44.586 16.1058 44.8194 17.492C45.0195 18.6584 45.7031 19.7403 46.6702 20.4165C48.5544 21.7351 52.0059 21.7013 53.7066 20.0277C54.9405 18.8106 55.1406 16.5285 54.607 14.9394C54.2402 13.8575 53.4065 12.9616 52.3727 12.5052C50.8053 11.8121 48.8378 11.7952 47.3205 12.6235C46.8203 12.8771 46.3534 13.249 45.9532 13.6716Z" fill="#DF5426"/>
  <path d="M49.722 10.1724L48.4047 10.3921C48.7382 10.9838 48.7049 11.7783 48.3047 12.3192C48.9049 12.4714 49.5719 12.4545 50.1388 12.2347C49.6719 11.6938 49.5052 10.8824 49.722 10.1724Z" fill="#DF5426"/>
  <path d="M47.637 10.2567C47.6036 10.8991 50.6216 10.5441 50.5049 9.96937C50.3715 9.19176 47.687 9.31009 47.637 10.2567Z" fill="#DF5426"/>
  <path d="M54.724 12.4711L53.6902 11.5752C53.4567 12.2176 52.8398 12.6909 52.1729 12.7416C52.4396 13.3164 52.8732 13.8066 53.4234 14.1109C53.5401 13.384 54.057 12.7585 54.724 12.4711Z" fill="#DF5426"/>
  <path d="M53.3238 10.8991C52.8069 11.3048 55.0245 13.4179 55.3914 12.9614C55.8749 12.336 54.0574 10.3412 53.3238 10.8991Z" fill="#DF5426"/>
  <path d="M56.1914 17.8129L56.208 16.4437C55.5744 16.6803 54.8074 16.4944 54.3406 16.0042C54.0904 16.5789 53.9904 17.2382 54.1071 17.8468C54.7407 17.4918 55.5577 17.4918 56.1914 17.8129Z" fill="#DF5426"/>
  <path d="M56.4746 15.7337C55.8577 15.5816 55.6743 18.6582 56.2412 18.6582C57.0415 18.6413 57.3917 15.9366 56.4746 15.7337Z" fill="#DF5426"/>
  <path d="M53.1066 22.4111L54.1404 21.549C53.5568 21.2109 53.2066 20.5009 53.2733 19.8247C52.6731 19.9938 52.1062 20.3487 51.7227 20.839C52.4063 21.0756 52.9399 21.7011 53.1066 22.4111Z" fill="#DF5426"/>
  <path d="M54.8575 21.2954C54.574 20.7207 52.1229 22.5464 52.5064 22.9859C53.0233 23.5944 55.291 22.1238 54.8575 21.2954Z" fill="#DF5426"/>
  <path d="M47.6709 22.6646L48.9881 22.9182C48.8714 22.242 49.1716 21.5151 49.7385 21.1432C49.2216 20.7882 48.6046 20.5685 47.9877 20.5854C48.2378 21.2616 48.1044 22.073 47.6709 22.6646Z" fill="#DF5426"/>
  <path d="M49.6557 23.3072C49.9058 22.7155 46.9545 21.9886 46.8545 22.5634C46.7378 23.3579 49.2889 24.1693 49.6557 23.3072Z" fill="#DF5426"/>
  <path d="M43.7344 19.0641L44.3847 20.2475C44.8182 19.7234 45.5685 19.4867 46.2188 19.6896C46.1521 19.0641 45.9186 18.4387 45.5185 17.9653C45.1517 18.6077 44.4514 19.0134 43.7344 19.0641Z" fill="#DF5426"/>
  <path d="M44.5017 21.008C45.1187 20.822 43.7681 18.0666 43.2679 18.3709C42.6009 18.7766 43.618 21.2784 44.5017 21.008Z" fill="#DF5426"/>
  <path d="M44.1524 13.5188L43.6855 14.7866C44.3525 14.7866 45.0195 15.2262 45.2862 15.8516C45.7198 15.4121 46.0366 14.8205 46.1366 14.195C45.4196 14.3302 44.6526 14.0428 44.1524 13.5188Z" fill="#DF5426"/>
  <path d="M43.1856 15.3786C43.7192 15.7336 44.9364 12.9105 44.3862 12.7245C43.6358 12.4541 42.402 14.8545 43.1856 15.3786Z" fill="#DF5426"/>
  <path d="M46.0689 15.531C46.0022 15.7677 46.0022 16.0213 46.1023 16.241C46.2357 16.5284 46.5358 16.6975 46.8359 16.7144C47.1361 16.7313 47.4362 16.6129 47.6863 16.427C47.9364 16.241 48.1365 15.9706 48.2199 15.6663C48.3033 15.362 48.2699 15.0239 48.1032 14.7534C47.9198 14.466 47.5529 14.2632 47.2194 14.3477C46.8693 14.4491 46.5525 14.6689 46.3357 14.9563C46.219 15.1422 46.119 15.3282 46.0689 15.531Z" fill="#F7A088"/>
  <path d="M46.9536 17.8805C46.9036 18.0496 46.9036 18.2524 46.9703 18.4215C47.0703 18.6412 47.3038 18.7765 47.5372 18.7934C47.7706 18.8103 48.0041 18.7257 48.1875 18.5736C48.3876 18.4215 48.5376 18.2355 48.6043 17.9988C48.671 17.7622 48.6544 17.5086 48.521 17.3058C48.3709 17.086 48.0875 16.9169 47.8373 16.9846C47.5706 17.0522 47.3205 17.2381 47.1537 17.4579C47.0703 17.5762 46.987 17.7284 46.9536 17.8805Z" fill="#F7A088"/>
  <path d="M48.4031 16.0042C48.3698 16.1225 48.3698 16.2408 48.4198 16.3592C48.4865 16.4944 48.6366 16.5789 48.7866 16.5958C48.9367 16.6127 49.0868 16.5451 49.2201 16.4606C49.3535 16.3592 49.4536 16.2408 49.4869 16.0887C49.5203 15.9365 49.5203 15.7675 49.4369 15.6323C49.3535 15.497 49.1535 15.3956 49.0034 15.4294C48.8366 15.4801 48.6699 15.5815 48.5532 15.7337C48.4865 15.8182 48.4365 15.9027 48.4031 16.0042Z" fill="#F7A088"/>
  <path d="M46.0529 17.3397C46.0363 17.4073 46.0363 17.4919 46.0696 17.5426C46.103 17.6271 46.203 17.6778 46.2864 17.6778C46.3697 17.6778 46.4698 17.644 46.5365 17.5933C46.6032 17.5426 46.6699 17.4581 46.7032 17.3735C46.7366 17.289 46.7199 17.1876 46.6699 17.1031C46.6199 17.0185 46.5031 16.9509 46.4031 16.9847C46.3031 17.0185 46.203 17.0861 46.1363 17.1707C46.103 17.2214 46.0696 17.2721 46.0529 17.3397Z" fill="#F7A088"/>
  <path d="M48.5041 14.7025C48.4874 14.7701 48.4874 14.8547 48.5208 14.9054C48.5541 14.9899 48.6542 15.0406 48.7375 15.0406C48.8209 15.0406 48.921 15.0068 48.9877 14.9561C49.0543 14.9054 49.121 14.8208 49.1544 14.7363C49.1877 14.6518 49.1711 14.5504 49.121 14.4658C49.071 14.3813 48.9543 14.3137 48.8543 14.3475C48.7542 14.3813 48.6542 14.4489 48.5875 14.5335C48.5541 14.5842 48.5208 14.6518 48.5041 14.7025Z" fill="#F7A088"/>
</svg>