<svg width="26" height="26" viewBox="0 0 26 26" fill="none" xmlns="http://www.w3.org/2000/svg">
<path fill-rule="evenodd" clip-rule="evenodd" d="M6.3985 7.6586L11.0059 3.24315C12.1201 2.17538 13.8779 2.17538 14.9921 3.24315L19.5995 7.6586H22.266C22.9035 7.6586 23.3931 8.22317 23.303 8.85421L21.7642 19.6252C21.5431 21.1733 20.2172 22.3232 18.6534 22.3232H7.34462C5.7808 22.3232 4.45494 21.1733 4.23378 19.6252L2.69507 8.85421C2.60492 8.22317 3.09457 7.6586 3.73201 7.6586H6.3985ZM12.0931 4.37755C12.5995 3.8922 13.3985 3.8922 13.9049 4.37755L17.3286 7.6586H8.66935L12.0931 4.37755ZM4.33589 9.22981L5.7892 19.403C5.89978 20.1771 6.56271 20.752 7.34462 20.752H18.6534C19.4353 20.752 20.0982 20.1771 20.2088 19.403L21.6621 9.22981H4.33589Z" fill="black"/>
<path fill-rule="evenodd" clip-rule="evenodd" d="M8.8091 12.1104C9.24298 12.1104 9.59471 12.4621 9.59471 12.896V17.0859C9.59471 17.5197 9.24298 17.8715 8.8091 17.8715C8.37523 17.8715 8.0235 17.5197 8.0235 17.0859V12.896C8.0235 12.4621 8.37523 12.1104 8.8091 12.1104Z" fill="black"/>
<path fill-rule="evenodd" clip-rule="evenodd" d="M12.999 12.1104C13.4329 12.1104 13.7846 12.4621 13.7846 12.896V17.0859C13.7846 17.5197 13.4329 17.8715 12.999 17.8715C12.5651 17.8715 12.2134 17.5197 12.2134 17.0859V12.896C12.2134 12.4621 12.5651 12.1104 12.999 12.1104Z" fill="black"/>
<path fill-rule="evenodd" clip-rule="evenodd" d="M17.1889 12.1104C17.6228 12.1104 17.9745 12.4621 17.9745 12.896V17.0859C17.9745 17.5197 17.6228 17.8715 17.1889 17.8715C16.755 17.8715 16.4033 17.5197 16.4033 17.0859V12.896C16.4033 12.4621 16.755 12.1104 17.1889 12.1104Z" fill="black"/>
</svg>
