<?xml version="1.0" standalone="no"?>
<!DOCTYPE svg PUBLIC "-//W3C//DTD SVG 20010904//EN"
 "http://www.w3.org/TR/2001/REC-SVG-20010904/DTD/svg10.dtd">
<svg version="1.0" xmlns="http://www.w3.org/2000/svg"
 width="105.000000pt" height="105.000000pt" viewBox="0 0 105.000000 105.000000"
 preserveAspectRatio="xMidYMid meet">
<metadata>
Created by potrace 1.14, written by Peter Selinger 2001-2017
</metadata>
<g transform="translate(0.000000,105.000000) scale(0.100000,-0.100000)"
fill="#000000" stroke="none">
<path d="M100 867 c0 -7 20 -32 44 -56 l45 -44 -24 -31 c-29 -38 -54 -99 -61
-146 -3 -19 -7 -46 -9 -59 -2 -13 -1 -29 3 -35 3 -6 8 -19 9 -29 2 -10 12 -35
23 -57 11 -22 20 -45 20 -52 0 -7 -33 -45 -74 -85 -52 -51 -70 -75 -63 -82 18
-18 25 -14 97 59 l70 70 61 -46 c43 -33 73 -48 102 -51 77 -9 165 -4 198 12
19 8 25 12 14 9 -11 -3 -47 -8 -80 -11 -49 -4 -70 -1 -115 20 -52 23 -130 87
-130 107 0 6 35 45 78 87 68 68 90 103 63 103 -4 0 -43 -34 -86 -75 -69 -66
-80 -73 -89 -58 -5 10 -11 25 -13 33 -1 8 -6 33 -10 55 -10 48 17 159 46 188
18 19 21 17 142 -109 273 -281 329 -336 344 -330 17 6 4 53 -14 49 -6 -2 -11
2 -11 8 0 15 -180 195 -191 191 -5 -1 -8 1 -7 5 3 11 -53 69 -63 65 -5 -1 -8
2 -7 6 2 5 -32 43 -75 84 -45 45 -75 81 -72 89 11 28 126 87 171 87 3 0 8 2
10 5 6 6 -85 1 -133 -7 -24 -4 -43 -12 -43 -17 0 -5 -5 -9 -12 -9 -6 0 -20 -7
-30 -17 -10 -9 -18 -11 -18 -5 0 6 -9 14 -20 17 -11 4 -19 9 -17 13 5 10 -30
42 -37 35 -3 -4 -6 1 -6 10 0 10 -7 17 -15 17 -8 0 -15 -6 -15 -13z"/>
<path d="M497 682 c-68 -68 -83 -92 -57 -92 12 0 160 148 160 160 0 24 -30 4
-103 -68z"/>
<path d="M623 678 c-11 -13 -16 -33 -14 -56 0 -7 13 -17 27 -22 32 -12 66 3
57 26 -3 9 -6 25 -7 37 -1 26 -46 36 -63 15z m47 -17 c0 -6 -5 -13 -11 -17 -8
-4 -7 -9 2 -15 18 -11 6 -21 -15 -13 -16 6 -22 35 -9 47 10 10 33 8 33 -2z"/>
<path d="M708 668 c-2 -13 -1 -36 3 -53 6 -28 7 -29 14 -7 4 12 9 22 12 22 3
0 14 -10 25 -22 l19 -23 -5 27 c-3 15 -2 30 4 33 20 12 -9 45 -39 45 -22 0
-30 -5 -33 -22z m52 -8 c0 -5 -7 -10 -15 -10 -8 0 -15 5 -15 10 0 6 7 10 15
10 8 0 15 -4 15 -10z"/>
<path d="M799 688 c-6 -18 -2 -81 6 -86 18 -12 66 -10 62 2 -2 6 -12 11 -22
11 -10 0 -20 6 -22 13 -3 7 1 10 10 6 8 -3 18 -1 21 4 3 5 -4 13 -17 17 -21 8
-21 8 6 12 35 6 25 23 -14 23 -16 0 -29 -1 -30 -2z"/>
<path d="M882 643 c3 -46 4 -48 32 -48 16 1 31 6 33 12 3 7 -6 10 -21 9 -17
-2 -26 2 -26 11 0 8 3 12 8 10 4 -3 16 -1 27 4 19 7 19 8 -2 8 -31 1 -40 21
-9 21 14 0 26 5 26 10 0 6 -16 10 -36 10 l-35 0 3 -47z"/>
<path d="M965 678 c-6 -19 -1 -76 8 -84 6 -7 11 12 10 44 -1 19 5 14 22 -18 9
-17 20 -28 25 -25 13 8 13 95 0 95 -5 0 -10 -12 -10 -27 l-1 -28 -17 28 c-18
29 -30 34 -37 15z"/>
<path d="M640 572 c-44 -13 -46 -78 -3 -88 25 -7 64 19 50 33 -4 3 -13 1 -19
-5 -20 -20 -38 -14 -38 12 0 29 17 43 33 27 14 -14 27 -14 27 -1 0 13 -32 28
-50 22z"/>
<path d="M760 561 c0 -24 -25 -28 -34 -6 -11 31 -26 14 -26 -31 0 -32 4 -44
13 -41 6 2 11 11 9 21 -2 10 4 16 18 16 13 0 20 -7 20 -20 0 -11 5 -20 10 -20
6 0 10 20 10 44 0 25 -4 48 -10 51 -5 3 -10 -3 -10 -14z"/>
<path d="M810 560 c-11 -11 -20 -28 -20 -38 0 -43 58 -57 84 -21 32 46 -25 98
-64 59z m45 -20 c7 -23 -1 -40 -20 -40 -18 0 -24 21 -13 43 12 23 25 22 33 -3z"/>
<path d="M902 567 c-7 -10 -9 -47 -3 -79 3 -17 21 -7 21 12 0 13 7 20 19 20
21 0 33 21 22 39 -11 17 -48 22 -59 8z m38 -16 c0 -6 -4 -13 -10 -16 -5 -3
-10 1 -10 9 0 9 5 16 10 16 6 0 10 -4 10 -9z"/>
<path d="M610 451 c0 -6 4 -12 8 -15 5 -3 9 1 9 9 0 8 -4 15 -9 15 -4 0 -8 -4
-8 -9z"/>
<path d="M666 448 c5 -7 2 -9 -8 -6 -8 4 -15 0 -15 -8 0 -7 4 -11 8 -8 4 2 10
-2 12 -8 3 -8 6 -6 6 5 1 10 6 15 11 12 6 -3 10 -2 10 3 0 6 -7 13 -16 16 -10
4 -13 2 -8 -6z"/>
<path d="M770 448 c0 -11 -7 -15 -25 -14 -13 2 -22 -1 -19 -5 2 -5 20 -8 39
-7 19 1 32 5 29 10 -3 4 -1 8 5 8 5 0 12 -5 14 -10 3 -6 4 -5 3 2 -2 7 -9 13
-17 13 -8 0 -17 5 -21 10 -5 6 -8 3 -8 -7z"/>
<path d="M871 443 c-1 -27 6 -29 31 -6 18 16 18 16 12 0 -3 -9 -2 -17 3 -17 5
0 9 9 10 19 1 13 -4 19 -17 18 -10 -1 -17 -4 -14 -8 2 -4 0 -10 -5 -13 -5 -4
-12 2 -14 11 -4 14 -5 13 -6 -4z"/>
<path d="M999 453 c-1 -5 -1 -12 0 -16 2 -11 -32 -4 -42 8 -5 6 -7 4 -5 -5 4
-14 68 -34 66 -21 -2 19 4 24 13 11 9 -13 10 -13 6 0 -2 8 -12 14 -22 12 -10
-2 -14 1 -10 7 3 6 4 11 1 11 -3 0 -7 -3 -7 -7z"/>
</g>
</svg>
